<?xml version="1.0" encoding="utf-8"?>
<!-- Svg Vector Icons : http://www.onlinewebfonts.com/icon -->
<!DOCTYPE svg PUBLIC "-//W3C//DTD SVG 1.1//EN" "http://www.w3.org/Graphics/SVG/1.1/DTD/svg11.dtd">
<svg version="1.1" xmlns="http://www.w3.org/2000/svg" xmlns:xlink="http://www.w3.org/1999/xlink" x="0px" y="0px" viewBox="0 0 256 256" enable-background="new 0 0 256 256" xml:space="preserve">
<metadata> Svg Vector Icons : http://www.onlinewebfonts.com/icon </metadata>
<g><g><g><path fill="#000000" d="M126.5,15.9c-2.3,0.7-4.5,2.4-5.9,4.5c-0.7,1.2-8.3,16.2-16.8,33.3L88.4,84.9l-34.5,5c-19,2.8-35.7,5.3-37,5.7c-2.9,0.8-5.8,3.3-6.6,5.5c-0.7,2-0.3,4.4,1.2,7c0.6,1.1,12.2,12.7,26.6,26.7c14,13.7,25.5,25,25.6,25.1c0.1,0.2-2.4,15.5-5.6,34c-3.1,18.5-5.9,34.5-6,35.5c-0.5,2.9,0.5,6.8,2.1,8.7c2.2,2.5,6.6,2.9,11.1,1c0.8-0.4,15.2-7.8,31.9-16.7c16.8-8.8,30.6-16,30.7-16c0.1,0,14.2,7.3,31.1,16.2c17,8.9,31.7,16.5,32.8,16.9c4,1.4,8.3,0.6,10.3-1.9c1.2-1.6,2-5.7,1.7-8.2c-0.2-1.1-2.9-17.1-6-35.5c-3.2-18.5-5.7-33.8-5.6-34c0.1-0.2,11.6-11.5,25.6-25.1c14.5-14.1,26-25.7,26.7-26.8c0.6-1.1,1.3-2.9,1.4-4.1c0.5-3.7-2.2-7-6.8-8.4c-1.1-0.3-17.7-2.9-36.8-5.6l-34.7-5l-14.3-28.8c-7.8-15.9-15-30.4-16-32.2C134.3,17.8,130.3,14.8,126.5,15.9z M128.8,25.2c0.3,0.3,7.5,14.8,16.1,32.2c9.6,19.4,16.2,32.2,17,33.1c0.8,0.8,2.1,1.7,3,2c0.9,0.2,17.3,2.7,36.6,5.5c19.2,2.8,35.2,5.2,35.4,5.3c0.2,0.2,0.4,0.5,0.4,0.7c0,0.2-11.7,11.7-25.9,25.6c-17.1,16.6-26.3,25.8-26.8,26.9c-0.5,0.9-0.8,2.3-0.8,2.9c0,0.7,2.7,16.9,6,36.1c3.3,19.1,6,35.2,6,35.6c0,0.4-0.3,0.7-0.7,0.7s-14.3-7.1-30.7-15.7c-16.5-8.6-31.1-16.2-32.3-16.8c-4.6-2.1-2.9-2.8-38.2,15.7c-17.7,9.3-32.5,16.8-32.9,16.8s-0.7-0.3-0.7-0.7c0-0.4,2.7-16.4,6-35.6c3.3-19.1,6-35.4,6-36.1c0-0.7-0.5-2.1-1-3.1c-0.6-1.2-11.1-11.7-26.8-26.9c-14.2-13.7-25.7-25.2-25.7-25.4c0-0.2,0.2-0.5,0.4-0.7c0.2-0.1,16.2-2.5,35.4-5.3c19.2-2.8,35.6-5.2,36.3-5.4c3.1-0.7,4.2-2.6,20.5-35.5c8.5-17.3,15.6-31.7,15.9-32c0.2-0.3,0.6-0.6,0.8-0.6S128.5,25,128.8,25.2z"/><path fill="#000000" d="M120.6,95.4v4.2l-2.2,0.8c-7.8,2.8-11.9,9.3-11.5,18.3c0.1,3.7,0.3,4.4,2.1,8c2.4,4.7,5.9,8.7,13.1,14.7c6.1,5.1,10,9.3,10.6,11.5c1.2,4.4,0.1,6.1-4.2,6.4c-2.7,0.2-3.1,0.1-4.4-1.1c-1.5-1.2-1.5-1.2-1.5-5.6v-4.3h-8.4h-8.4l0.2,5.9c0.1,5.6,0.3,6.1,1.7,9c2.2,4.5,6.3,7.8,12.2,9.8c0.6,0.2,0.8,0.8,0.8,3.5v3.2h7.2h7.2v-3.2c0-2.2,0.2-3.3,0.6-3.4c9.9-2.9,15.1-9.1,15.1-18.2c0-8.6-3.8-14.3-17.2-25.9c-7.1-6.1-9.7-10.2-8.9-13.6c0.4-1.4,1.8-2.1,4.5-2.1c1.4,0,2.2,0.3,3.2,1.3c1.3,1.3,1.3,1.5,1.3,5.5v4.2h8.4h8.4l-0.2-6.4c-0.2-5.7-0.3-6.6-1.5-9.2c-1.9-4.2-5.1-6.8-11.1-8.9l-2.3-0.8l-0.1-4l-0.1-4h-7.1h-7.2L120.6,95.4L120.6,95.4z M131.7,98.6v3.8l3.3,0.8c7.8,1.9,11.9,7.1,11.9,14.8v2.7h-4.8h-4.8v-2.2c0-5.1-2.2-8-6.4-8.9c-2.6-0.5-6,0-7.8,1.2c-1.6,1-2.6,3.3-2.5,6c0,4.7,2.7,8.6,10.2,15.1c11.2,9.6,14.7,14.2,15.7,20.1c0.4,2.7,0.1,6.4-0.7,8.6c-1.6,4.3-6.6,7.9-12.7,9.2c-1.2,0.3-1.3,0.4-1.3,3.3v3H128h-3.7v-3c0-2.9,0-3-1.2-3.3c-9-2-13.3-6.4-13.8-14.1l-0.3-3.6h4.8h4.8l0.5,3.5c0.8,5.7,3.1,7.8,8.7,7.8c3.8,0,6.4-1.1,8-3.5c1.3-2,1.4-6.7,0.1-9.5c-1.2-2.5-6-7.7-11.9-12.4c-6.1-5.1-9.6-8.9-11.6-13.1c-1.6-3.1-1.7-3.8-1.7-7.2c0-3.9,1-6.8,3.2-9.7c1.3-1.7,5.8-4.2,8.4-4.8l1.8-0.4l0.1-4l0.1-4h3.6h3.7V98.6z"/></g></g></g>
</svg>